<svg version="1.1" id="Layer_1" xmlns="http://www.w3.org/2000/svg" xmlns:xlink="http://www.w3.org/1999/xlink" x="0px" y="0px"
	 width="100%" viewBox="0 0 204 192" enable-background="new 0 0 204 192" xml:space="preserve">
<path fill="#000000" opacity="1.000000" stroke="none" 
	d="
M120.000000,193.000000 
	C80.024948,193.000000 40.549900,193.000000 1.037424,193.000000 
	C1.037424,129.065399 1.037424,65.130760 1.037424,1.098061 
	C68.891548,1.098061 136.783295,1.098061 204.837524,1.098061 
	C204.837524,64.999672 204.837524,128.999802 204.837524,193.000000 
	C176.797714,193.000000 148.648849,193.000000 120.000000,193.000000 
M167.066299,34.236389 
	C166.385666,33.806934 165.705017,33.377480 164.814758,32.305630 
	C162.217712,30.238478 159.620667,28.171328 156.885727,25.402136 
	C154.925644,24.925610 152.965561,24.449083 150.294846,24.038769 
	C147.173874,27.362635 144.052902,30.686501 140.340866,34.306664 
	C138.199890,36.556381 136.058914,38.806099 133.124176,41.412281 
	C133.052078,54.599400 132.979996,67.786514 131.982727,81.009956 
	C117.768326,81.008186 103.553772,80.976318 89.339752,81.049072 
	C87.843987,81.056725 86.351379,81.680656 84.412537,81.933914 
	C84.412537,81.933914 83.968025,82.020042 83.243050,82.010750 
	C79.831192,81.619003 76.419342,81.227264 73.075798,80.427811 
	C73.075798,80.427811 72.997620,80.021866 73.774101,79.614891 
	C73.852028,66.602242 73.940033,53.589619 73.969337,40.576859 
	C73.970459,40.079212 73.405266,39.580288 72.479515,38.800121 
	C70.656723,36.538750 68.833923,34.277382 66.837006,31.307301 
	C63.888664,28.860056 60.940323,26.412809 57.788094,23.337126 
	C56.523495,22.568632 55.258896,21.800140 53.323105,21.321762 
	C50.459576,22.783375 49.823944,25.128149 49.902279,28.244457 
	C50.118446,36.843838 49.984406,45.452026 49.205063,54.009937 
	C47.637901,54.744072 46.070736,55.478203 44.000381,56.448055 
	C44.000381,49.813557 44.097683,44.064369 43.954597,38.321171 
	C43.893604,35.873116 43.330284,33.437580 42.262791,30.801847 
	C42.020687,32.178951 41.778584,33.556053 40.919788,34.903301 
	C40.302643,34.914665 39.685493,34.926025 38.316319,34.868465 
	C37.694218,35.230171 37.072121,35.591873 36.038376,36.156399 
	C35.696892,36.641109 35.355404,37.125816 34.428150,38.074993 
	C34.257687,39.034798 34.087223,39.994602 33.145844,41.373535 
	C33.097836,76.256355 33.044674,111.139168 33.040039,146.021988 
	C33.039948,146.696365 33.611351,147.370789 33.991402,148.921600 
	C34.309772,151.672302 34.628147,154.423019 35.180977,157.754684 
	C35.782265,157.872986 36.383549,157.991287 37.311565,158.658249 
	C38.546108,159.774429 39.780651,160.890594 40.920441,162.741302 
	C41.617390,163.157990 42.314339,163.574661 43.787354,164.005432 
	C45.854599,164.984680 47.921848,165.963943 49.978149,167.800781 
	C49.930481,170.518265 49.141678,173.941635 52.592789,174.767044 
	C54.107986,175.129456 56.202637,173.069107 58.678764,171.857910 
	C61.155788,169.233383 63.632809,166.608856 66.733315,163.772247 
	C68.817482,161.242722 70.901642,158.713196 73.775612,155.754196 
	C73.930649,143.497864 74.085686,131.241516 74.614822,119.101364 
	C74.614822,119.101364 74.994286,119.004128 75.932495,119.002350 
	C94.623436,119.002800 113.314369,119.003250 132.414825,119.098160 
	C132.414825,119.098160 132.816406,118.974190 132.986603,119.901237 
	C132.990952,130.482803 132.956253,141.064697 133.044464,151.645584 
	C133.056793,153.123154 133.673248,154.595688 133.989853,156.006104 
	C133.989853,156.006104 133.959000,156.066177 134.051834,156.606323 
	C134.368057,156.744217 134.684280,156.882095 135.392792,157.554489 
	C137.310211,159.376663 139.227615,161.198853 141.375854,163.709824 
	C146.030212,165.062119 148.157349,168.722717 150.373276,172.963699 
	C150.584000,172.974197 150.794724,172.984711 151.311661,173.535263 
	C153.470367,177.321655 154.679276,174.028137 156.866211,172.957779 
	C159.596176,170.002121 162.326126,167.046448 165.587204,163.954926 
	C165.712662,163.638611 165.838104,163.322281 166.514069,162.793808 
	C167.040787,162.220917 167.567520,161.648010 168.652527,160.783905 
	C169.765152,159.554810 170.877777,158.325714 172.541412,156.991058 
	C172.724457,156.682373 172.907516,156.373703 173.853210,155.629715 
	C173.901459,121.407143 173.955048,87.184578 173.958832,52.962002 
	C173.958908,52.294456 173.373932,51.626846 173.005966,50.076992 
	C172.662430,47.306232 172.318893,44.535473 171.805832,41.139492 
	C170.264954,39.314323 168.724060,37.489155 167.121826,35.312748 
	C167.121826,35.312748 166.989822,34.981525 167.066299,34.236389 
z"/>
<path fill="#383839" opacity="1.000000" stroke="none" 
	d="
M156.176361,172.882645 
	C154.679276,174.028137 153.470367,177.321655 151.160797,172.797089 
	C151.006973,151.562622 151.032700,131.066254 150.953018,110.570274 
	C150.945740,108.696297 150.263687,106.824959 149.575317,104.693459 
	C147.611099,104.337517 145.966629,104.158234 144.321915,104.155731 
	C115.611588,104.111946 86.901237,104.089821 57.779716,104.124405 
	C56.912422,105.471321 56.064323,106.755150 56.058884,108.042542 
	C55.974804,127.939667 55.967216,147.837418 56.070648,167.734375 
	C56.077915,169.132278 57.092964,170.524918 57.773594,171.892975 
	C57.907803,171.865921 58.034180,172.108826 58.034180,172.108826 
	C56.202637,173.069107 54.107986,175.129456 52.592789,174.767044 
	C49.141678,173.941635 49.930481,170.518265 49.997177,166.907135 
	C50.007092,128.694580 49.997974,91.375656 49.988857,54.056728 
	C49.984406,45.452026 50.118446,36.843838 49.902279,28.244457 
	C49.823944,25.128149 50.459576,22.783375 53.708389,21.560696 
	C54.729012,24.290308 55.897556,26.777126 55.915611,29.272272 
	C56.064404,49.833519 55.958500,70.396553 56.076447,90.958199 
	C56.086082,92.637802 57.181385,94.311172 57.928787,96.127228 
	C58.085350,96.267021 58.060905,96.686089 58.282101,97.049454 
	C59.289005,97.606789 60.074532,97.969498 60.860451,97.970352 
	C89.054451,98.001228 117.248528,98.012680 145.442429,97.949547 
	C146.615906,97.946922 147.787704,97.203377 149.021851,96.594208 
	C149.263397,96.123184 149.511322,95.983635 150.171188,95.719666 
	C150.676025,94.674156 150.976288,93.873909 150.977295,93.073296 
	C151.004013,71.801994 151.012802,50.530628 150.963257,29.259415 
	C150.960754,28.185333 150.409119,27.112530 150.145050,25.747223 
	C150.453140,24.961065 150.729309,24.466814 151.005478,23.972561 
	C152.965561,24.449083 154.925644,24.925610 157.015167,26.211441 
	C157.149979,71.539452 157.160568,116.058167 157.150589,160.576874 
	C157.149811,164.057312 157.005432,167.537704 156.703445,171.145416 
	C156.338486,171.583893 156.197876,171.895081 156.097015,172.373596 
	C156.136765,172.540939 156.176361,172.882645 156.176361,172.882645 
z"/>
<path fill="#F4F4F4" opacity="1.000000" stroke="none" 
	d="
M149.827164,95.964760 
	C149.511322,95.983635 149.263397,96.123184 148.557251,96.553009 
	C118.041031,96.710434 88.050972,96.698265 58.060905,96.686089 
	C58.060905,96.686089 58.085350,96.267021 57.971649,95.661163 
	C57.902626,71.358719 57.947304,47.662144 57.991982,23.965565 
	C60.940323,26.412809 63.888664,28.860056 66.571075,31.873487 
	C65.984673,33.699860 65.390091,34.958992 65.385239,36.220390 
	C65.322556,52.547085 65.336700,68.874107 65.355942,85.201019 
	C65.357651,86.650841 65.530472,88.100471 65.617897,89.458168 
	C91.226181,89.458168 116.441856,89.458168 141.939743,89.458168 
	C141.939743,71.425804 141.951447,53.780186 141.897156,36.134766 
	C141.894974,35.425652 141.267868,34.718456 140.931931,34.010368 
	C144.052902,30.686501 147.173874,27.362635 150.650162,24.005665 
	C150.729309,24.466814 150.453140,24.961065 149.983612,26.188641 
	C149.802567,49.936230 149.814865,72.950493 149.827164,95.964760 
z"/>
<path fill="#F5F5F5" opacity="1.000000" stroke="none" 
	d="
M58.190887,104.062981 
	C86.901237,104.089821 115.611588,104.111946 144.321915,104.155731 
	C145.966629,104.158234 147.611099,104.337517 149.510223,105.161667 
	C149.758728,128.217392 149.752686,150.545975 149.746628,172.874557 
	C148.157349,168.722717 146.030212,165.062119 141.611389,163.119934 
	C141.846939,145.476578 141.846939,128.423096 141.846939,111.232834 
	C116.083069,111.232834 90.927826,111.232834 65.415733,111.232834 
	C65.415733,128.812332 65.413139,146.066956 65.444527,163.321518 
	C65.444931,163.542847 65.878456,163.763397 66.109833,163.984314 
	C63.632809,166.608856 61.155788,169.233383 58.356472,171.983368 
	C58.034180,172.108826 57.907803,171.865921 57.846622,171.469299 
	C57.815243,165.114258 57.838924,159.155777 57.876015,153.197372 
	C57.977966,136.819229 58.085541,120.441109 58.190887,104.062981 
z"/>
<path fill="#414142" opacity="1.000000" stroke="none" 
	d="
M140.636398,34.158516 
	C141.267868,34.718456 141.894974,35.425652 141.897156,36.134766 
	C141.951447,53.780186 141.939743,71.425804 141.939743,89.458168 
	C116.441856,89.458168 91.226181,89.458168 65.617897,89.458168 
	C65.530472,88.100471 65.357651,86.650841 65.355942,85.201019 
	C65.336700,68.874107 65.322556,52.547085 65.385239,36.220390 
	C65.390091,34.958992 65.984673,33.699860 66.658142,32.227844 
	C68.833923,34.277382 70.656723,36.538750 72.707809,39.397915 
	C72.956612,53.337761 72.977112,66.679817 72.997620,80.021866 
	C72.997620,80.021866 73.075798,80.427811 73.079834,80.988686 
	C74.053726,82.028030 75.023598,82.506493 76.280464,83.291336 
	C94.903130,83.732872 113.238747,83.892517 131.574585,83.922485 
	C132.390701,83.923820 133.208755,82.745102 134.053162,81.831146 
	C134.036682,81.360527 133.992950,81.174805 134.046997,80.529930 
	C134.069153,67.065796 133.993546,54.060806 133.917938,41.055817 
	C136.058914,38.806099 138.199890,36.556381 140.636398,34.158516 
z"/>
<path fill="#3F3F40" opacity="1.000000" stroke="none" 
	d="
M66.421570,163.878281 
	C65.878456,163.763397 65.444931,163.542847 65.444527,163.321518 
	C65.413139,146.066956 65.415733,128.812332 65.415733,111.232834 
	C90.927826,111.232834 116.083069,111.232834 141.846939,111.232834 
	C141.846939,128.423096 141.846939,145.476578 141.495987,162.775543 
	C139.227615,161.198853 137.310211,159.376663 135.141693,157.012192 
	C134.580078,156.335327 134.269531,156.200745 133.959000,156.066177 
	C133.959000,156.066177 133.989853,156.006104 134.074860,155.570114 
	C134.167984,144.438248 134.224792,133.741898 134.123596,123.047050 
	C134.110703,121.685432 133.272339,120.331619 132.816406,118.974190 
	C132.816406,118.974190 132.414825,119.098160 131.945007,118.724396 
	C113.197311,118.263664 94.919456,118.168678 76.641479,118.128433 
	C76.093056,118.127228 75.543381,118.699326 74.994286,119.004128 
	C74.994286,119.004128 74.614822,119.101364 74.085999,118.990112 
	C73.328575,118.909012 73.099968,118.939163 72.646011,119.001236 
	C72.156639,119.139832 71.892616,119.246498 71.628593,119.353180 
	C71.959755,119.557983 72.290916,119.762787 72.716324,120.429230 
	C72.868980,132.655136 72.927399,144.419403 72.985809,156.183670 
	C70.901642,158.713196 68.817482,161.242722 66.421570,163.878281 
M71.394714,156.468658 
	C71.394714,156.468658 71.507294,156.396378 71.394714,156.468658 
z"/>
<path fill="#F9F9F9" opacity="1.000000" stroke="none" 
	d="
M156.521286,172.920212 
	C156.176361,172.882645 156.136765,172.540939 156.357635,172.270935 
	C156.694916,171.673325 156.811356,171.345734 156.927780,171.018127 
	C157.005432,167.537704 157.149811,164.057312 157.150589,160.576874 
	C157.160568,116.058167 157.149979,71.539452 157.084106,26.562462 
	C159.620667,28.171328 162.217712,30.238478 164.838928,32.856068 
	C164.863098,33.406506 164.942719,33.885956 164.869141,34.272949 
	C164.870773,35.439518 164.945969,36.219090 164.918808,37.457779 
	C164.805695,67.322144 164.772736,96.727402 164.795456,126.132629 
	C164.804184,137.422180 164.939835,148.711624 164.927460,160.379944 
	C164.877243,161.532227 164.917221,162.305664 164.931610,163.336945 
	C164.956024,163.760101 165.006042,163.925430 165.056076,164.090775 
	C162.326126,167.046448 159.596176,170.002121 156.521286,172.920212 
z"/>
<path fill="#FFFFFF" opacity="1.000000" stroke="none" 
	d="
M49.596962,54.033333 
	C49.997974,91.375656 50.007092,128.694580 50.002655,166.478348 
	C47.921848,165.963943 45.854599,164.984680 43.247013,163.637421 
	C42.649605,162.514496 42.592537,161.759583 42.612404,160.542175 
	C42.698792,144.140991 42.735111,128.202301 42.711586,112.263702 
	C42.673607,86.533623 42.596233,60.803589 42.663307,34.672375 
	C42.859158,33.179596 42.927197,32.087975 42.995235,30.996355 
	C43.330284,33.437580 43.893604,35.873116 43.954597,38.321171 
	C44.097683,44.064369 44.000381,49.813557 44.000381,56.448055 
	C46.070736,55.478203 47.637901,54.744072 49.596962,54.033333 
z"/>
<path fill="#383839" opacity="1.000000" stroke="none" 
	d="
M42.535500,35.073536 
	C42.596233,60.803589 42.673607,86.533623 42.711586,112.263702 
	C42.735111,128.202301 42.698792,144.140991 42.412640,160.656403 
	C41.762360,161.491028 41.388775,161.748901 41.015190,162.006775 
	C39.780651,160.890594 38.546108,159.774429 37.171204,158.083038 
	C37.024620,157.307480 37.018391,157.107101 37.007973,156.446869 
	C37.002628,119.034409 37.024006,82.081734 36.928406,45.129360 
	C36.923996,43.424557 35.870304,41.722469 35.269032,39.604355 
	C35.159809,38.663239 35.086864,38.136879 35.013916,37.610523 
	C35.355404,37.125816 35.696892,36.641109 36.629944,36.147560 
	C37.837124,35.738277 38.452736,35.337833 39.068348,34.937389 
	C39.685493,34.926025 40.302643,34.914665 41.475647,34.971848 
	C42.199505,35.051441 42.367504,35.062489 42.535500,35.073536 
z"/>
<path fill="#383839" opacity="1.000000" stroke="none" 
	d="
M165.017639,160.001114 
	C164.939835,148.711624 164.804184,137.422180 164.795456,126.132629 
	C164.772736,96.727402 164.805695,67.322144 165.255753,37.422775 
	C166.191101,36.507103 166.687134,36.085545 167.183182,35.663982 
	C168.724060,37.489155 170.264954,39.314323 171.921951,41.777905 
	C171.988174,42.628300 171.938278,42.840286 171.604248,43.350510 
	C171.214264,44.298748 171.016037,44.948715 171.015747,45.598774 
	C170.999649,81.168846 170.990814,116.738937 171.038071,152.308960 
	C171.039719,153.544540 171.618027,154.779358 171.994125,155.897919 
	C172.060699,155.781311 172.316757,155.862213 172.146576,156.147400 
	C171.981079,156.653946 171.985748,156.875290 171.990417,157.096634 
	C170.877777,158.325714 169.765152,159.554810 168.070282,160.792877 
	C166.664566,160.534958 165.841095,160.268036 165.017639,160.001114 
z"/>
<path fill="#FFFFFF" opacity="1.000000" stroke="none" 
	d="
M33.916119,148.045197 
	C33.611351,147.370789 33.039948,146.696365 33.040039,146.021988 
	C33.044674,111.139168 33.097836,76.256355 33.747044,41.242844 
	C34.348244,41.112152 34.803181,41.048149 34.868103,41.509663 
	C34.889744,77.296967 34.846466,112.622757 34.575428,147.917664 
	C34.347664,147.886795 33.916119,148.045197 33.916119,148.045197 
z"/>
<path fill="#FFFFFF" opacity="1.000000" stroke="none" 
	d="
M173.061905,50.959267 
	C173.373932,51.626846 173.958908,52.294456 173.958832,52.962002 
	C173.955048,87.184578 173.901459,121.407143 173.296875,155.726288 
	C172.740555,155.822861 172.316757,155.862213 172.316757,155.862213 
	C172.316757,155.862213 172.060699,155.781311 172.125626,155.444458 
	C172.232269,120.435928 172.273987,85.764259 172.518890,51.152298 
	C172.722061,51.212006 173.061905,50.959270 173.061905,50.959267 
z"/>
<path fill="#303031" opacity="1.000000" stroke="none" 
	d="
M57.890038,23.651344 
	C57.947304,47.662144 57.902626,71.358719 57.815086,95.521370 
	C57.181385,94.311172 56.086082,92.637802 56.076447,90.958199 
	C55.958500,70.396553 56.064404,49.833519 55.915611,29.272272 
	C55.897556,26.777126 54.729012,24.290308 54.043983,21.415638 
	C55.258896,21.800140 56.523495,22.568632 57.890038,23.651344 
z"/>
<path fill="#303031" opacity="1.000000" stroke="none" 
	d="
M134.025909,82.116043 
	C133.208755,82.745102 132.390701,83.923820 131.574585,83.922485 
	C113.238747,83.892517 94.903130,83.732872 76.710266,83.277229 
	C79.224716,82.644516 81.596375,82.332283 83.968025,82.020042 
	C83.968025,82.020042 84.412537,81.933914 85.107666,82.053406 
	C101.877159,82.153946 117.951538,82.134995 134.025909,82.116043 
z"/>
<path fill="#1A1A1B" opacity="1.000000" stroke="none" 
	d="
M150.059952,172.919128 
	C149.752686,150.545975 149.758728,128.217392 149.829880,105.420609 
	C150.263687,106.824959 150.945740,108.696297 150.953018,110.570274 
	C151.032700,131.066254 151.006973,151.562622 151.007690,172.527069 
	C150.794724,172.984711 150.584000,172.974197 150.059952,172.919128 
z"/>
<path fill="#808080" opacity="1.000000" stroke="none" 
	d="
M75.463394,119.003235 
	C75.543381,118.699326 76.093056,118.127228 76.641479,118.128433 
	C94.919456,118.168678 113.197311,118.263664 131.740250,118.677170 
	C113.314369,119.003250 94.623436,119.002800 75.463394,119.003235 
z"/>
<path fill="#E3E3E3" opacity="1.000000" stroke="none" 
	d="
M134.053162,81.831146 
	C117.951538,82.134995 101.877159,82.153946 85.330048,82.095787 
	C86.351379,81.680656 87.843987,81.056725 89.339752,81.049072 
	C103.553772,80.976318 117.768326,81.008186 132.705750,80.988800 
	C133.602249,80.974792 133.775742,80.981934 133.949234,80.989075 
	C133.992950,81.174805 134.036682,81.360527 134.053162,81.831146 
z"/>
<path fill="#D0D0D0" opacity="1.000000" stroke="none" 
	d="
M73.385864,79.818375 
	C72.977112,66.679817 72.956612,53.337761 73.020035,39.538834 
	C73.405266,39.580288 73.970459,40.079212 73.969337,40.576859 
	C73.940033,53.589619 73.852028,66.602242 73.385864,79.818375 
z"/>
<path fill="#FFFFFF" opacity="1.000000" stroke="none" 
	d="
M134.046997,80.529930 
	C133.775742,80.981934 133.602249,80.974792 133.168335,80.970642 
	C132.979996,67.786514 133.052078,54.599400 133.521057,41.234047 
	C133.993546,54.060806 134.069153,67.065796 134.046997,80.529930 
z"/>
<path fill="#D0D0D0" opacity="1.000000" stroke="none" 
	d="
M72.871361,118.969322 
	C73.099968,118.939163 73.328575,118.909012 73.898956,118.932022 
	C74.085686,131.241516 73.930649,143.497864 73.380707,155.968933 
	C72.927399,144.419403 72.868980,132.655136 72.797791,120.184448 
	C72.813805,119.308456 72.842583,119.138885 72.871361,118.969322 
z"/>
<path fill="#FFFFFF" opacity="1.000000" stroke="none" 
	d="
M132.901505,119.437714 
	C133.272339,120.331619 134.110703,121.685432 134.123596,123.047050 
	C134.224792,133.741898 134.167984,144.438248 134.084961,155.602341 
	C133.673248,154.595688 133.056793,153.123154 133.044464,151.645584 
	C132.956253,141.064697 132.990952,130.482803 132.901505,119.437714 
z"/>
<path fill="#727273" opacity="1.000000" stroke="none" 
	d="
M83.605537,82.015396 
	C81.596375,82.332283 79.224716,82.644516 76.423264,82.970856 
	C75.023598,82.506493 74.053726,82.028030 73.045670,81.192543 
	C76.419342,81.227264 79.831192,81.619003 83.605537,82.015396 
z"/>
<path fill="#B9B9B9" opacity="1.000000" stroke="none" 
	d="
M173.033936,50.518131 
	C173.061905,50.959270 172.722061,51.212006 172.386597,50.721165 
	C171.996872,47.837643 171.942627,45.444958 171.888367,43.052277 
	C171.938278,42.840286 171.988174,42.628300 172.006714,42.090515 
	C172.318893,44.535473 172.662430,47.306232 173.033936,50.518131 
z"/>
<path fill="#D0D0D0" opacity="1.000000" stroke="none" 
	d="
M33.953758,148.483398 
	C33.916119,148.045197 34.347664,147.886795 34.712994,148.354004 
	C35.323692,151.532974 35.569061,154.244705 35.580704,156.943878 
	C35.346977,156.931290 34.946522,157.173721 34.946522,157.173721 
	C34.628147,154.423019 34.309772,151.672302 33.953758,148.483398 
z"/>
<path fill="#303031" opacity="1.000000" stroke="none" 
	d="
M164.927444,160.379944 
	C165.841095,160.268036 166.664566,160.534958 167.791138,160.938492 
	C167.567520,161.648010 167.040787,162.220917 165.984543,162.881195 
	C165.289078,163.005432 165.123154,163.042267 164.957214,163.079117 
	C164.917221,162.305664 164.877243,161.532227 164.927444,160.379944 
z"/>
<path fill="#595959" opacity="1.000000" stroke="none" 
	d="
M42.663307,34.672375 
	C42.367504,35.062489 42.199505,35.051441 41.783997,34.986778 
	C41.778584,33.556053 42.020687,32.178951 42.629013,30.899101 
	C42.927197,32.087975 42.859158,33.179596 42.663307,34.672375 
z"/>
<path fill="#303031" opacity="1.000000" stroke="none" 
	d="
M167.152496,35.488365 
	C166.687134,36.085545 166.191101,36.507103 165.358109,36.963661 
	C164.945969,36.219090 164.870773,35.439518 165.161087,34.376778 
	C166.014343,34.389580 166.502090,34.685555 166.989822,34.981525 
	C166.989822,34.981525 167.121826,35.312748 167.152496,35.488365 
z"/>
<path fill="#595959" opacity="1.000000" stroke="none" 
	d="
M40.967815,162.374039 
	C41.388775,161.748901 41.762360,161.491028 42.335705,161.118927 
	C42.592537,161.759583 42.649605,162.514496 42.858978,163.630371 
	C42.314339,163.574661 41.617390,163.157990 40.967815,162.374039 
z"/>
<path fill="#D0D0D0" opacity="1.000000" stroke="none" 
	d="
M34.803181,41.048149 
	C34.803181,41.048149 34.348244,41.112152 34.132500,41.033279 
	C34.087223,39.994602 34.257687,39.034798 34.721031,37.842758 
	C35.086864,38.136879 35.159809,38.663239 35.170570,39.874825 
	C35.006645,40.722752 34.904911,40.885448 34.803181,41.048149 
z"/>
<path fill="#C3C3C3" opacity="1.000000" stroke="none" 
	d="
M167.028061,34.608955 
	C166.502090,34.685555 166.014343,34.389580 165.234665,33.989784 
	C164.942719,33.885956 164.863098,33.406506 164.943741,33.177265 
	C165.705017,33.377480 166.385666,33.806934 167.028061,34.608955 
z"/>
<path fill="#595959" opacity="1.000000" stroke="none" 
	d="
M38.692333,34.902927 
	C38.452736,35.337833 37.837124,35.738277 36.835766,36.046150 
	C37.072121,35.591873 37.694218,35.230171 38.692333,34.902927 
z"/>
<path fill="#595959" opacity="1.000000" stroke="none" 
	d="
M37.012157,156.906723 
	C37.018391,157.107101 37.024620,157.307480 37.007839,157.808716 
	C36.383549,157.991287 35.782265,157.872986 35.063751,157.464203 
	C34.946522,157.173721 35.346977,156.931290 35.761715,156.864471 
	C36.451797,156.858566 36.730366,156.894928 37.012157,156.906723 
z"/>
<path fill="#727273" opacity="1.000000" stroke="none" 
	d="
M134.005417,156.336243 
	C134.269531,156.200745 134.580078,156.335327 134.945557,156.744934 
	C134.684280,156.882095 134.368057,156.744217 134.005417,156.336243 
z"/>
<path fill="#B9B9B9" opacity="1.000000" stroke="none" 
	d="
M172.146576,156.147400 
	C172.316757,155.862213 172.740555,155.822861 172.915558,155.943939 
	C172.907516,156.373703 172.724457,156.682373 172.265915,157.043854 
	C171.985748,156.875290 171.981079,156.653946 172.146576,156.147400 
z"/>
<path fill="#C3C3C3" opacity="1.000000" stroke="none" 
	d="
M164.931610,163.336945 
	C165.123154,163.042267 165.289078,163.005432 165.709290,162.987274 
	C165.838104,163.322281 165.712662,163.638611 165.321640,164.022858 
	C165.006042,163.925430 164.956024,163.760101 164.931610,163.336945 
z"/>
<path fill="#303031" opacity="1.000000" stroke="none" 
	d="
M57.779716,104.124405 
	C58.085541,120.441109 57.977966,136.819229 57.876015,153.197372 
	C57.838924,159.155777 57.815243,165.114258 57.712414,171.496353 
	C57.092964,170.524918 56.077915,169.132278 56.070648,167.734375 
	C55.967216,147.837418 55.974804,127.939667 56.058884,108.042542 
	C56.064323,106.755150 56.912422,105.471321 57.779716,104.124405 
z"/>
<path fill="#1A1A1B" opacity="1.000000" stroke="none" 
	d="
M58.282101,97.049454 
	C88.050972,96.698265 118.041031,96.710434 148.495697,96.763809 
	C147.787704,97.203377 146.615906,97.946922 145.442429,97.949547 
	C117.248528,98.012680 89.054451,98.001228 60.860451,97.970352 
	C60.074532,97.969498 59.289005,97.606789 58.282101,97.049454 
z"/>
<path fill="#1A1A1B" opacity="1.000000" stroke="none" 
	d="
M150.171188,95.719666 
	C149.814865,72.950493 149.802567,49.936230 149.951706,26.480547 
	C150.409119,27.112530 150.960754,28.185333 150.963257,29.259415 
	C151.012802,50.530628 151.004013,71.801994 150.977295,93.073296 
	C150.976288,93.873909 150.676025,94.674156 150.171188,95.719666 
z"/>
<path fill="#202021" opacity="1.000000" stroke="none" 
	d="
M156.703445,171.145416 
	C156.811356,171.345734 156.694916,171.673325 156.317871,172.103592 
	C156.197876,171.895081 156.338486,171.583893 156.703445,171.145416 
z"/>
<path fill="#303031" opacity="1.000000" stroke="none" 
	d="
M72.646011,119.001236 
	C72.842583,119.138885 72.813805,119.308456 72.703552,119.722809 
	C72.290916,119.762787 71.959755,119.557983 71.628593,119.353180 
	C71.892616,119.246498 72.156639,119.139832 72.646011,119.001236 
z"/>
<path fill="#303031" opacity="1.000000" stroke="none" 
	d="
M71.451004,156.432526 
	C71.507294,156.396378 71.394714,156.468658 71.451004,156.432526 
z"/>
<path fill="#303031" opacity="1.000000" stroke="none" 
	d="
M37.007973,156.446869 
	C36.730366,156.894928 36.451797,156.858566 35.995438,156.877045 
	C35.569061,154.244705 35.323692,151.532974 34.940758,148.384888 
	C34.846466,112.622757 34.889744,77.296967 34.868103,41.509663 
	C34.904911,40.885448 35.006645,40.722752 35.206844,40.289581 
	C35.870304,41.722469 36.923996,43.424557 36.928406,45.129360 
	C37.024006,82.081734 37.002628,119.034409 37.007973,156.446869 
z"/>
<path fill="#1A1A1B" opacity="1.000000" stroke="none" 
	d="
M171.604248,43.350510 
	C171.942627,45.444958 171.996872,47.837643 172.183426,50.661453 
	C172.273987,85.764259 172.232269,120.435928 172.059052,155.561066 
	C171.618027,154.779358 171.039719,153.544540 171.038071,152.308960 
	C170.990814,116.738937 170.999649,81.168846 171.015747,45.598774 
	C171.016037,44.948715 171.214264,44.298748 171.604248,43.350510 
z"/>
</svg>